<?xml version="1.0" encoding="utf-8"?>
<!-- Generator: Adobe Illustrator 18.1.1, SVG Export Plug-In . SVG Version: 6.00 Build 0)  -->
<!DOCTYPE svg PUBLIC "-//W3C//DTD SVG 1.1//EN" "http://www.w3.org/Graphics/SVG/1.1/DTD/svg11.dtd">
<svg version="1.1" xmlns="http://www.w3.org/2000/svg" xmlns:xlink="http://www.w3.org/1999/xlink" x="0px" y="0px"
	 viewBox="420 0 1080 1080" enable-background="new 420 0 1080 1080" xml:space="preserve">
<g id="Layer_2">
	<circle display="none" fill="#00001E" cx="960" cy="540" r="530.6"/>
</g>
<g id="Layer_1">
	<radialGradient id="SVGID_1_" cx="960" cy="540" r="401.0963" gradientUnits="userSpaceOnUse">
		<stop  offset="0" style="stop-color:#FFFFFF"/>
		<stop  offset="0.1272" style="stop-color:#FBFBFC"/>
		<stop  offset="0.2598" style="stop-color:#EEF0F4"/>
		<stop  offset="0.3948" style="stop-color:#D9DDE6"/>
		<stop  offset="0.5315" style="stop-color:#BCC3D3"/>
		<stop  offset="0.6696" style="stop-color:#97A1BA"/>
		<stop  offset="0.8088" style="stop-color:#68789B"/>
		<stop  offset="0.9464" style="stop-color:#334877"/>
		<stop  offset="1" style="stop-color:#1C3368"/>
	</radialGradient>
	<path fill="url(#SVGID_1_)" d="M1363,563.3c-0.8-40.5-8.4-81-22.7-118.9c-28.5-75.8-82.6-141.4-150.3-185.8
		c-50.4-33.1-109.8-54.9-170-52.9c-35.4,1.2-70.2,10.4-103.7,22c-15.4,5.3-30.5,9-70.4,46.3c-18.7,17.5-35.9,38.2-44.5,62.3
		c-83,233.3,104.5,197.3,127.1,205.7c61.4,22.2,45.3,120.2,8.5,155.1c-26.5,25.2-65,36.2-101.4,32.4c-36.4-3.8-70.6-21.4-97.6-46
		C692.7,642,667.3,581.2,663.6,520s9.2-106.6,39.8-178.1c45.8-88.6,134.5-153.8,232.7-171c87-15.3,178.8,6.3,253.8,52.9
		c52.3,32.5,93.8,78.2,126.8,130.2l30.3,37.7c-2.6-17.6-39.8-77.5-51.3-93.5c-22.6-31.6-50.1-59.5-81.8-82
		c-59.7-42.4-131.4-66.9-204.3-73.5c-39.4-3.5-79.5-2-117.6,8.6c-31.9,8.9-61.8,23.9-89.6,41.9c-54.8,35.4-102.3,83.1-133.5,140.3
		c-36.5,66.8-49.8,146-37,221c11.2,66.1,43.1,129.5,93.3,173.9c50.2,44.5,119.1,68.8,185.6,60.4c32-4,63.5-15.7,88.4-36.2
		c24.9-20.5,42.7-50.4,45.6-82.5c1-10.8,0.3-21.8-3.5-31.9c-13-34.9-54.7-54-53.9-95.3c0.6-35.4,39.6-67.7,70.3-78.7
		c34.1-12.2,74-6.4,103.2,14.9c41.6,30.4,57.7,133.8,57.4,139.7c-3,57.8-34,110.6-74,152.5c-57.1,59.9-155.7,80.3-155.7,80.3
		c-123.3,26.8-258.8-26.7-335-127.3s-91.5-242.3-43.7-359c10.8-26.3,24.5-51.4,39.4-75.6c7.6-12.3,15.8-24.1,23.7-36.2
		c5.5-8.4,10.4-24.3,17.8-30.8c-77.2,66.8-126.8,164.9-133.5,266.8c-6.6,101.9,30.1,206.1,100.2,280.4s172.5,117.3,274.5,113.9
		c38.4-1.3,76.5-8.8,112.9-21.1c32.7-11.1,64.2-26,92.2-46.1c57.1-40.8,98.8-102.8,114.9-171.1c12.4-52.7,9.7-109.8-12.7-159.2
		c-22.3-49.4-65.1-90.2-117-105.6c-28.4-8.4-60-8.9-86.6,3.9c-35,16.9-35.6,45-50.9,75.1c-15.6,30.6-42.2,46.1-75.3,33.5
		c-26-9.9-47.1-32.5-55.6-58.9c-10.3-32-3.3-67.7,13.9-96c12.1-19.9,29.3-33.5,49-45.4c16.5-10,33.6-18.9,51.2-26.8
		c8.4-3.7,16.4-7.2,25.3-9.1c8.2-1.8,16.4-3,24.8-3.8c33.4-3.1,67.2,1.5,99,11.9c32.2,10.5,62.5,26.9,89.4,47.6
		c3.3,2.6,6.6,5.2,9.9,7.9c37.3,31.4,67.7,70.9,88.4,115c17.8,37.7,28.5,78.7,31.3,120.3c2.4,35.3-1,71-10,105.3
		c-25.2,96.4-95.8,179-185,223.5c-49.2,24.5-103.6,37.7-158.5,40c-28,1.2-56.2-0.5-83.9-4.9c-13.8-2.2-14.1-1.3-27.7-5
		c-7.1-1.9-41.8-4.1-45.3-6c37.5,21.3,93.7,26.6,136.1,30.4c119.2,2.7,238.4-50.9,315.5-141.9c28.8-33.9,51.9-72.7,66.6-114.7
		C1357.6,644.3,1363.8,603.7,1363,563.3z"/>
	<g>
		<circle fill="#103889" cx="905.1" cy="594.5" r="28.3"/>
		<circle fill="#103889" cx="1044.9" cy="540" r="28.3"/>
		<circle fill="#103889" cx="933.2" cy="442" r="28.3"/>
	</g>
</g>
</svg>
